<svg xmlns="http://www.w3.org/2000/svg" class="" enable-background="new 0 0 842 595" viewBox="0 0 842 595" x="0px" y="0px" width="842px" height="595px" xmlns:xml="http://www.w3.org/XML/1998/namespace" xml:space="preserve" pagealignment="none" xmlns:xlink="http://www.w3.org/1999/xlink" version="1.1"><defs /><g id="workspace" locked="true" name="workspace" type="LAYER" /><g id="Layer 01" name="Layer 01" type="LAYER"><text font-family="Garamond" font-size="32px" fill="#000000" stroke="none" stroke-miterlimit="3" text-anchor="start" transform="matrix(1 0 0 1 239.409 58.5065)" type="textBox" text-align="left" height="36" width="375.3246753246754"><tspan x="0" y="32">SOME THINGS TO NOTE:</tspan></text><text font-family="Garamond" font-size="26px" fill="#000000" stroke="none" stroke-miterlimit="3" text-anchor="start" transform="matrix(1 0 0 1 79.5359 128.056)" type="textBox" text-align="left" height="300" width="715.1329084962358" lineheight="150"><tspan x="0" y="26">"A RELEASE OF COMICS ABOUT MATHA, LANGUAGE,</tspan><tspan x="0" y="176">MUSIC, AND WHATEVER COMES TO MIND!"</tspan></text><text font-family="Garamond" font-size="18px" fill="#000000" stroke="none" stroke-miterlimit="3" text-anchor="start" transform="matrix(1 0 0 1 512.071 221.883)" type="textBox" text-align="left" height="42" width="220.77922077922085"><tspan x="0" y="18">COMPROMISE BETWEEN</tspan><tspan x="0" y="39">MATH AND MATHS</tspan></text><path fill="#000000" stroke="none" stroke-miterlimit="3" transform="matrix(1 0 0 1 -39.7403 -37.5325)" d="M 623.565 256.104 C 623.565 244.411 617.271 229.94 609.214 221.883 C 605.649 218.318 602.591 209.455 602.591 211.948 L 601.612 211.742 C 602.313 208.411 610.274 221.346 612.344 223.844 C 619.847 232.897 623.964 244.396 624.564 256.053 L 623.565 256.104 Z" height="44.899824097487055" width="22.951274611114286" /><path fill="#000000" stroke="none" stroke-miterlimit="3" transform="matrix(1 0 0 1 -39.7403 -37.5325)" d="M 593.76 227.403 C 594.705 223.621 599.098 211.948 602.591 211.948 L 602.886 212.904 C 598.132 214.372 595.916 223.457 594.722 227.675 L 593.76 227.403 Z" height="15.726970762092492" width="9.126267568982144" /><path fill="#000000" stroke="none" stroke-miterlimit="3" transform="matrix(1 0 0 1 -39.7403 -37.5325)" d="M 643.435 224.091 C 626.036 224.091 615.197 213.052 600.383 213.052 L 600.454 212.054 C 615.578 213.133 628.249 222.156 643.496 223.093 L 643.435 224.091 Z" height="12.036429378028743" width="43.11324099879289" /><text font-family="Garamond" font-size="18px" fill="#000000" stroke="none" stroke-miterlimit="3" text-anchor="start" transform="matrix(1 0 0 1 158.05 379.531)" type="textBox" text-align="left" height="21" width="220.77922077922076"><tspan x="0" y="18">OXFORD COMMA</tspan></text><path fill="#000000" stroke="none" stroke-miterlimit="3" transform="matrix(1 0 0 1 43.3814 -32.2223)" d="M 156.617 401.818 C 155.345 400.351 133.77 366.493 127.916 366.493 L 128.313 365.576 C 141.17 371.145 149.62 390.227 157.433 401.24 L 156.617 401.818 Z" height="36.24229197060862" width="29.516924268341768" /><path fill="#000000" stroke="none" stroke-miterlimit="3" transform="matrix(1 0 0 1 43.3814 -32.2223)" d="M 109.149 383.052 C 111.371 376.386 116.766 356.558 123.5 356.558 L 123.773 357.52 C 115.123 359.977 112.483 375.958 110.101 383.358 L 109.149 383.052 Z" height="26.799820730218585" width="14.623857404095816" /><path fill="#000000" stroke="none" stroke-miterlimit="3" transform="matrix(1 0 0 1 43.3814 -32.2223)" d="M 162.136 367.597 C 147.439 363.923 139.645 356.558 124.604 356.558 L 124.653 355.56 C 138.28 356.223 149.532 362.964 162.411 366.636 L 162.136 367.597 Z" height="12.037776934368765" width="37.80662192202277" /><path fill="#000000" stroke="none" stroke-miterlimit="3" d="M 202.981 58.5065 C 245.93 47.769 288.187 43.7357 332.136 39.7403 C 356.223 37.5506 380.907 41.93 404.993 39.7403 C 480.22 32.9015 557.168 29.8916 631.292 46.3636 C 644.438 49.285 654.268 45.4713 667.721 49.6753 C 717.847 65.3398 747.153 79.8848 777.006 122.532 C 809.637 169.147 812.187 172.783 795.773 238.442 C 783.383 288.001 765.527 299.549 733.955 333.377 C 710.741 358.248 691.287 385.671 661.097 402.922 C 619.693 426.582 547.565 451.44 502.136 454.805 C 467.668 457.358 433.379 451.493 399.474 451.493 C 373.966 451.493 346.565 455.993 321.097 452.597 C 297.235 449.416 275.919 439.059 253.76 432.727 C 232.982 426.791 205.753 431.072 184.214 429.416 C 163.151 427.795 138.617 409.929 120.188 400.714 C 114.96 398.1 111.064 387.321 104.734 384.156 C 94.9757 379.277 83.0654 375.734 74.9286 367.597 C 46.7501 339.419 50.4852 252.95 55.0584 216.364 C 58.6853 187.349 47.3837 152.285 70.513 129.156 C 79.7802 119.889 86.503 107.642 98.1104 99.3506 C 104.85 94.5363 116.385 95.1808 123.5 91.6234 C 138.992 83.8774 152.675 75.3798 168.76 67.3377 C 178.817 62.3088 197.007 59.6104 206.292 59.6104 C 207.764 59.6104 207.396 59.2424 207.396 60.7143 L 206.396 60.6916 C 206.49 56.5673 171.22 67.1478 164.463 70.6506 C 124.939 91.1375 91.244 98.36 65.3946 136.991 C 51.6147 157.585 57.7492 184.424 56.7476 207.539 C 54.6857 255.125 42.9507 313.207 68.2689 356.994 C 78.2416 374.241 93.0078 373.764 107.169 384.518 C 112.259 388.383 114.364 394.952 119.282 398.916 C 171.751 441.199 201.597 417.698 254.018 431.761 C 276.639 437.829 297.798 448.51 321.23 451.606 C 350.554 455.48 380.252 449.805 409.686 450.656 C 437.066 451.447 464.342 455.177 491.771 454.333 C 552.551 452.463 629.173 428.446 677.422 390.665 C 695.955 376.153 710.702 357.642 726.345 340.234 C 751.526 312.21 779.145 289.003 790.931 251.924 C 798.374 228.505 808.224 198.491 803.794 173.522 C 801.309 159.517 792.891 147.403 785.076 135.893 C 754.397 90.7067 719.312 66.826 667.439 50.6351 C 656.784 47.3097 645.855 49.5706 635.005 48.0438 C 556.746 37.032 484.083 34.403 405.068 40.7375 C 383.168 42.4932 361.325 39.3148 339.423 40.2666 C 293.852 42.2468 247.564 49.0457 203.21 59.4799 L 202.981 58.5065 Z" height="421.1308510986286" width="753.6939608499044" /><text font-family="Garamond" font-size="18px" fill="#000000" stroke="none" stroke-miterlimit="3" text-anchor="start" transform="matrix(1 0 0 1 292.396 513.312)" type="textBox" text-align="left" height="21" width="248.3766233766234"><tspan x="0" y="18">ALL-CAPS SERIF FONT</tspan></text><path fill="#000000" stroke="none" stroke-miterlimit="3" d="M 395.058 496.753 C 395.058 487.205 398.37 475.573 398.37 468.052 L 399.369 468.091 C 398.992 477.74 396.365 487.116 396.058 496.785 L 395.058 496.753 Z" height="28.733029022973483" width="4.31092597827535" /><path fill="#000000" stroke="none" stroke-miterlimit="3" d="M 385.123 474.675 C 388.938 471.624 397.553 464.74 400.578 464.74 L 400.759 465.724 C 395.224 466.741 390.009 472.057 385.747 475.457 L 385.123 474.675 Z" height="10.716724329968088" width="15.635369885962575" /><path fill="#000000" stroke="none" stroke-miterlimit="3" d="M 400.578 463.636 C 403.1 466.159 407.857 482.403 408.305 482.403 L 407.434 482.893 C 404.144 477.042 403.757 469.779 399.766 464.22 L 400.578 463.636 Z" height="19.256298632442963" width="8.539632689328755" /><path fill="#000000" stroke="none" stroke-miterlimit="3" d="M 448.045 503.377 C 456.907 498.313 465.44 492.338 475.643 492.338 C 480.538 492.338 485.205 488.166 491.097 490.13 C 536.38 505.224 502.91 572.922 456.877 572.922 C 449.812 572.922 442.029 571.928 439.214 566.299 C 433.918 555.705 427.071 559.155 427.071 545.325 L 428.07 545.271 C 428.518 553.598 431.661 555.001 436.668 560.714 C 455.109 581.755 484.419 570.316 501.037 547.535 C 507.726 538.367 512.739 526.398 511.369 514.794 C 506.985 477.671 467.483 493.243 448.548 504.241 L 448.045 503.377 Z" height="83.31677942539096" width="85.30424039483762" /><path fill="#000000" stroke="none" stroke-miterlimit="3" d="M 409.409 557.468 C 412.029 554.847 418.894 546.879 421.552 544.221 C 439.054 526.719 432.847 546.429 446.942 546.429 L 446.797 547.418 C 422.228 543.834 440.442 526.813 410.128 558.163 L 409.409 557.468 Z" height="21.183474070715533" width="37.532467532467535" /></g></svg>
